<svg xmlns="http://www.w3.org/2000/svg" width="55.744" height="55.744" viewBox="0 0 55.744 55.744">
  <path id="Icon_material-account-circle" data-name="Icon material-account-circle" d="M30.372,3A27.372,27.372,0,1,0,57.744,30.372,27.382,27.382,0,0,0,30.372,3Zm0,8.212a8.212,8.212,0,1,1-8.212,8.212A8.2,8.2,0,0,1,30.372,11.212Zm0,38.869a19.709,19.709,0,0,1-16.423-8.814c.082-5.447,10.949-8.431,16.423-8.431,5.447,0,16.341,2.984,16.423,8.431A19.709,19.709,0,0,1,30.372,50.08Z" transform="translate(-2.5 -2.5)" fill="#f5f5f5" stroke="#000" stroke-width="1"/>
</svg>
