<svg xmlns="http://www.w3.org/2000/svg" width="291.954" height="242.695" viewBox="0 0 291.954 242.695">
  <g id="Group_132" data-name="Group 132" transform="translate(-38.629 -509.919)">
    <g id="Group_111" data-name="Group 111" transform="translate(217.829 509.919)">
      <g id="Group_108" data-name="Group 108" transform="translate(101.184 99.122)">
        <path id="Path_227" data-name="Path 227" d="M208.865,580.5c2.519-2.27,5.019-5.988,6.376-6.234s3.789,4.763.839,7.2a40.149,40.149,0,0,1-6.143,4.117Z" transform="translate(-208.212 -567.164)" fill="#ff9d66"/>
        <path id="Path_228" data-name="Path 228" d="M208.508,582.292c1.09-3.17-.355-8.682.434-9.167s3.315,6.172,2.762,7.274S208.094,583.5,208.508,582.292Z" transform="translate(-208.47 -567.918)" fill="#ff9d66"/>
        <path id="Path_229" data-name="Path 229" d="M210.1,581.167c4.451-4.466,4.292-10.883,4.867-11.193s1.375,4.863-.5,8.246S210.1,581.167,210.1,581.167Z" transform="translate(-207.41 -569.961)" fill="#ff9d66"/>
        <path id="Path_230" data-name="Path 230" d="M211.422,581.714c4.451-4.467,4.292-10.884,4.867-11.195s1.306,4.51-.57,7.891S211.422,581.714,211.422,581.714Z" transform="translate(-206.548 -569.607)" fill="#ff9d66"/>
        <path id="Path_231" data-name="Path 231" d="M210.853,583.135c5.349-3.27,6.78-9.118,7.393-9.3s.157,4.314-2.48,7.092C213.1,583.734,210.853,583.135,210.853,583.135Z" transform="translate(-206.919 -567.44)" fill="#ff9d66"/>
      </g>
      <path id="Path_232" data-name="Path 232" d="M163.009,608.652c-.107,1.468,3.462,78.566,3.462,78.566h.617l33.1-77.455Z" transform="translate(-136.876 -445.656)" fill="#755154"/>
      <path id="Path_233" data-name="Path 233" d="M179.754,657.576l20.431-47.812-37.176-1.113c-.063.87,1.161,28.21,2.169,50.4Z" transform="translate(-136.876 -445.657)" fill="#5e3e42"/>
      <path id="Path_234" data-name="Path 234" d="M185.351,607.38c-.015,1.509,8.489,80.666,8.489,80.666h.616l14.3-65.12Z" transform="translate(-122.333 -446.484)" fill="#755154"/>
      <path id="Path_235" data-name="Path 235" d="M202.483,651.493l6.272-28.567-23.4-15.546c-.007.822,2.508,24.634,4.8,46.177Z" transform="translate(-122.333 -446.484)" fill="#5e3e42"/>
      <path id="Path_236" data-name="Path 236" d="M189.815,658.175h11.048s-6.369-3.239-9.1-3.158S189.815,658.175,189.815,658.175Z" transform="translate(-119.494 -415.48)" fill="#efddca"/>
      <path id="Path_237" data-name="Path 237" d="M171.423,658.175H159.968s6.6-3.239,9.435-3.158S171.423,658.175,171.423,658.175Z" transform="translate(-138.854 -415.48)" fill="#efddca"/>
      <path id="Path_238" data-name="Path 238" d="M203.379,605.914l-29.529,4.539.56,31.9,27.371-7.7Z" transform="translate(-129.818 -447.438)" fill="#755154"/>
      <path id="Path_239" data-name="Path 239" d="M164.9,568.706c-2.7,7.041-2.163,39.348-2.8,67.945-.4,18.211-3.036,35.629-1.618,41.751,0,0,57.936-9.053,70.571-18.98,0,0-12.121-78.451-19.518-87.99C201.241,558.159,167.795,561.137,164.9,568.706Z" transform="translate(-138.792 -475.856)" fill="#a26aaa"/>
      <path id="Path_240" data-name="Path 240" d="M169.371,571.568a33.128,33.128,0,0,0,24.961-4.776s-1.991,4.816-8.616,7.127C177.232,576.879,169.371,571.568,169.371,571.568Z" transform="translate(-132.733 -472.901)" fill="#ff9d66"/>
      <path id="Path_241" data-name="Path 241" d="M169.632,647.289c17.983-2.957,46.746-9.134,55.188-16.134,0,0-1.94-11.512-4.251-25.473a50.446,50.446,0,0,0-8.142,1.593C191.524,613,174.066,629.877,169.632,647.289Z" transform="translate(-132.564 -447.589)" fill="#bb81c1"/>
      <path id="Path_242" data-name="Path 242" d="M169.251,565.1c-7.569,1.2-22.371,43.851-7.99,55.92S178.118,577.2,178.118,577.2,174.123,564.325,169.251,565.1Z" transform="translate(-141.948 -474.027)" fill="#a26aaa"/>
      <path id="Path_243" data-name="Path 243" d="M172.868,588.336c1.928-10.118-.586-17.1-5.068-17.955-3.353-.639-6.661,1.489-9.146,7.807-.763,2.288-1.454,4.7-2.036,7.176-1.885,10.065.182,18.891,4.646,19.743C165.745,605.962,170.94,598.454,172.868,588.336Z" transform="translate(-141.487 -470.636)" fill="#bb81c1"/>
      <path id="Path_244" data-name="Path 244" d="M163.321,567.844c4.112,1.623,11.787,4.443,18.338,4.443,9.507,0,15.82-3.941,19.115-6.967C187.547,559.557,167.243,562.078,163.321,567.844Z" transform="translate(-136.671 -475.983)" fill="#ff9d66"/>
      <path id="Path_245" data-name="Path 245" d="M147.922,546.171c2.683-9.218,12.51-9.055,12.51-9.055s-2.272-17.215,12.24-24.2c14.815-7.127,24.281.68,24.281.68s14.759-1.974,25.866,11.558a28.281,28.281,0,0,1,4.812,27.871s4.135,3.818,5.428,8.3c1.286,4.461-5.35,13.762-5.35,13.762s4.847,11.929-19.682,15.058l-25.131,3.47c-34.589-.442-32.36-29.886-32.36-29.886S145.276,555.26,147.922,546.171Z" transform="translate(-147.178 -509.919)" fill="#c92b41"/>
      <path id="Path_246" data-name="Path 246" d="M188.134,555.291l-18.234-.132-.467,12.322c5.136,6.034,17.309,5.265,19.028.566Z" transform="translate(-132.693 -480.473)" fill="#ff9d66"/>
      <path id="Path_247" data-name="Path 247" d="M216.262,563.988c2.676-13.8-3.178-34.7-22.524-37.678s-32.477,15.01-35.155,28.809,8.066,26.97,23.994,29.42S213.586,577.788,216.262,563.988Z" transform="translate(-140.022 -499.462)" fill="#ffbb83"/>
      <path id="Path_248" data-name="Path 248" d="M193.454,522.783c-28.418,23.267-30.9,49.731-30.9,49.731l-6.927-13.676,1.066-17.05,15.452-16.164Z" transform="translate(-141.682 -501.546)" fill="#c92b41"/>
      <path id="Path_249" data-name="Path 249" d="M163.274,556.324c1.39-.958,1.1-3.769-.641-6.28s-4.287-3.766-5.677-2.808-1.1,3.771.641,6.28S161.883,557.283,163.274,556.324Z" transform="translate(-141.387 -485.839)" fill="#ffbb83"/>
      <path id="Path_250" data-name="Path 250" d="M161.259,553.577c.8-.553.636-2.171-.37-3.614s-2.468-2.164-3.27-1.611-.636,2.169.368,3.612S160.457,554.129,161.259,553.577Z" transform="translate(-140.713 -485.025)" fill="#ef7a62"/>
      <path id="Path_251" data-name="Path 251" d="M161.439,552.835c.619-.426.492-1.674-.284-2.787s-1.905-1.671-2.523-1.245-.492,1.674.284,2.788S160.822,553.261,161.439,552.835Z" transform="translate(-139.978 -484.703)" fill="#ffbb83"/>
      <g id="Group_109" data-name="Group 109" transform="translate(36.803 41.417)">
        <path id="Path_252" data-name="Path 252" d="M178.084,543.74a2.956,2.956,0,1,0-3,3.368A3.213,3.213,0,0,0,178.084,543.74Z" transform="translate(-167.66 -531.611)" fill="#604748"/>
        <path id="Path_253" data-name="Path 253" d="M190.347,543.384a2.955,2.955,0,1,0-3,3.368A3.212,3.212,0,0,0,190.347,543.384Z" transform="translate(-159.677 -531.843)" fill="#604748"/>
        <path id="Path_254" data-name="Path 254" d="M177.194,535.465l-6.594,2.4a1.645,1.645,0,0,0-1.078,1.918l.426,1.519a1.376,1.376,0,0,0,1.857.854l6.6-2.4a1.643,1.643,0,0,0,1.076-1.918l-.426-1.519A1.375,1.375,0,0,0,177.194,535.465Z" transform="translate(-169.471 -534.773)" fill="#c92b41"/>
        <path id="Path_255" data-name="Path 255" d="M192.665,536.793,186.4,535.06a1.386,1.386,0,0,0-1.737.982l-.376,1.5a1.471,1.471,0,0,0,1.052,1.755l6.262,1.733a1.387,1.387,0,0,0,1.737-.982l.376-1.5A1.473,1.473,0,0,0,192.665,536.793Z" transform="translate(-159.853 -535.006)" fill="#c92b41"/>
        <path id="Path_256" data-name="Path 256" d="M180.778,543.267s-.147.367-.33.938c1.76,2.326,4.007,6.422-.33,6.514.046.107.064.229.119.332C187.78,551.977,182.18,544.665,180.778,543.267Z" transform="translate(-162.541 -529.63)" fill="#ef7a62"/>
        <path id="Path_257" data-name="Path 257" d="M184.583,553.8a4.124,4.124,0,0,0-2.379-1.7,3.385,3.385,0,0,0-3.8.826l-.378-.055c.888-1.893,2.7-2.924,4.438-2.348a4.19,4.19,0,0,1,2.6,3.35Z" transform="translate(-163.9 -525.014)" fill="#ef7a62"/>
      </g>
      <path id="Path_258" data-name="Path 258" d="M178.531,566.862l55.344-3.211a2.522,2.522,0,0,1,2.618,2.555l1.218,58.312a2.774,2.774,0,0,1-2.491,2.863l-50.777,3.457a2.5,2.5,0,0,1-2.63-2.334l-5.785-58.556A2.783,2.783,0,0,1,178.531,566.862Z" transform="translate(-128.409 -474.949)" fill="#efddca"/>
      <path id="Path_259" data-name="Path 259" d="M230.167,564.651l-50.358,2.922a112.368,112.368,0,0,0,7.858,18.272c11.412,21.194,27.7,35.672,42.264,39.434l1.514-.1a2.633,2.633,0,0,0,2.366-2.719l-1.156-55.377A2.4,2.4,0,0,0,230.167,564.651Z" transform="translate(-125.94 -474.298)" fill="#f7e8da"/>
      <path id="Path_260" data-name="Path 260" d="M166.713,609.249c-16.329,2.633-9.554-17.412-4.624-20.494s9.091-4.469,12.327,1.233S171.489,608.478,166.713,609.249Z" transform="translate(-141.17 -460.35)" fill="#5e3e42"/>
      <path id="Path_261" data-name="Path 261" d="M190.735,584.163c-10.9,1.535-26.807,5.106-29.61,7.43s-1.641,10.726,1.819,12.8,28.669-18.668,28.669-18.668Z" transform="translate(-139.122 -461.595)" fill="#ffbb83"/>
      <path id="Path_262" data-name="Path 262" d="M163.779,595.274a8.692,8.692,0,0,1-2.957-3.764c-2.4,2.671-1.207,10.491,2.118,12.487,3.459,2.077,28.669-18.668,28.669-18.668l-.31-.553C182.358,589.464,166.692,597.179,163.779,595.274Z" transform="translate(-139.119 -461.196)" fill="#ff9d66"/>
      <path id="Path_263" data-name="Path 263" d="M178.424,632.237c7.231-16.291,26.965-24.19,26.965-24.19C194.829,616.651,184.767,625.084,178.424,632.237Z" transform="translate(-126.841 -446.05)" fill="#a26aaa"/>
      <path id="Path_264" data-name="Path 264" d="M170.911,578.954c-5.392-7.232-11.247-5.537-11.247-5.537s3.835-4.629,6.394-3.7C170.3,571.259,170.911,578.954,170.911,578.954Z" transform="translate(-139.051 -471.077)" fill="#ff9d66"/>
      <path id="Path_265" data-name="Path 265" d="M169.526,580.155c-6.1-5.473-9.732-4.693-9.732-4.693s1.923-2.4,3.739-1.91C167.091,574.512,169.526,580.155,169.526,580.155Z" transform="translate(-138.967 -468.545)" fill="#ff9d66"/>
      <g id="Group_110" data-name="Group 110" transform="translate(44.933 117.274)">
        <path id="Path_266" data-name="Path 266" d="M177.3,584.523c3.383.226,7.792-.571,8.913.231s-.776,6.037-4.583,5.621a40.262,40.262,0,0,1-7.232-1.537Z" transform="translate(-174.396 -578.723)" fill="#ffbb83"/>
        <path id="Path_267" data-name="Path 267" d="M175.533,587.039c3.033-1.426,5.981-6.3,6.879-6.075s-2.118,6.678-3.293,7.049S174.381,587.582,175.533,587.039Z" transform="translate(-173.803 -580.956)" fill="#ffbb83"/>
        <path id="Path_268" data-name="Path 268" d="M177.939,586.157c6.3.081,10.8-4.505,11.421-4.309s-2.531,4.376-6.263,5.387S177.939,586.157,177.939,586.157Z" transform="translate(-172.09 -580.38)" fill="#ffbb83"/>
        <path id="Path_269" data-name="Path 269" d="M178.47,587.487c6.306.081,10.8-4.505,11.421-4.309s-2.324,4.079-6.057,5.09S178.47,587.487,178.47,587.487Z" transform="translate(-171.744 -579.514)" fill="#ffbb83"/>
        <path id="Path_270" data-name="Path 270" d="M176.515,587.362c6.072,1.558,11.264-1.489,11.819-1.172s-2.985,3.118-6.813,3.161C177.654,589.4,176.515,587.362,176.515,587.362Z" transform="translate(-173.017 -577.565)" fill="#ffbb83"/>
      </g>
    </g>
    <g id="Group_114" data-name="Group 114" transform="translate(38.629 522.665)">
      <path id="Path_271" data-name="Path 271" d="M66.988,602.8c0-2.666-2.242-2.428-5.532-2.825s-6.384-1.281-6.384,1.387,2.668,5.149,5.958,5.547S66.988,605.464,66.988,602.8Z" transform="translate(-27.927 -464.354)" fill="#ffbb83"/>
      <path id="Path_272" data-name="Path 272" d="M83.116,585.5C65.763,574.907,73,551.863,73,551.863s-19.036-8.631,11.242-21.184c0,0-10.354-19.812,32.113-10.594s38.776,38.838,38.776,38.838,22.439,24.715-3.343,46.1c0,0-5.238,25.3-36.77,20.007S83.116,585.5,83.116,585.5Z" transform="translate(-20.104 -517.64)" fill="#933b34"/>
      <path id="Path_273" data-name="Path 273" d="M94.209,643.493l-11.715-1.428c-10.7-1.306-19.46-11.411-19.249-22.216l.66-33.78L85.039,593.8Z" transform="translate(-22.61 -473.101)" fill="#ff8f33"/>
      <path id="Path_274" data-name="Path 274" d="M128.642,594.715c-3.568-11.523-12.594-25.433-18.468-23.825s-7.743,12.253-4.173,23.774,11.223,19.561,17.1,17.953S132.211,606.239,128.642,594.715Z" transform="translate(4.041 -483.063)" fill="#c9472d"/>
      <path id="Path_275" data-name="Path 275" d="M124.15,591.526c-1.426-4.741-5.539-7.695-9.182-6.6s-5.443,5.829-4.017,10.57,5.539,7.695,9.184,6.6S125.576,596.267,124.15,591.526Z" transform="translate(8.124 -473.993)" fill="#5e3e42"/>
      <path id="Path_276" data-name="Path 276" d="M95.355,605.309c-.142,1.545,1.687,82.677,1.687,82.677h.616L123.2,601.832Z" transform="translate(-1.714 -462.842)" fill="#ffbb83"/>
      <path id="Path_277" data-name="Path 277" d="M98.994,666.619a8.516,8.516,0,0,1,4.581,1.41l19.627-66.2-27.847,3.477c-.1,1.032.688,37.541,1.22,61.693A8.052,8.052,0,0,1,98.994,666.619Z" transform="translate(-1.714 -462.842)" fill="#ff9d66"/>
      <path id="Path_278" data-name="Path 278" d="M75.591,606.534c0,1.507,20.441,80.6,20.441,80.6h.924l6.164-83.986Z" transform="translate(-14.572 -461.987)" fill="#ffbb83"/>
      <path id="Path_279" data-name="Path 279" d="M97.94,673.723l5.18-70.578-27.53,3.389c0,1.01,9.207,36.965,15.262,60.506A16.362,16.362,0,0,1,97.94,673.723Z" transform="translate(-14.572 -461.987)" fill="#ff9d66"/>
      <path id="Path_280" data-name="Path 280" d="M72.069,661.5c32.572,14.09,72.689,8.859,72.689,8.859s1.222-63.4-6.027-79.047l-63.2-11.665C71.247,606.246,69.322,635.326,72.069,661.5Z" transform="translate(-17.696 -477.28)" fill="#e85d42"/>
      <path id="Path_281" data-name="Path 281" d="M139.322,591.07,75.534,579.649c-4.287,26.6-6.212,55.677-3.465,81.853l.056.023c-1.246-24.753,9.4-45.526,26.189-48.615,19.15-3.525,39.031,17.3,44.405,46.506a81.488,81.488,0,0,1,1.261,11.034c.492-.054.778-.091.778-.091S146.571,606.71,139.322,591.07Z" transform="translate(-17.696 -477.28)" fill="#c9472d"/>
      <path id="Path_282" data-name="Path 282" d="M89.166,565.74c-28.552,21.867-30.936,33.745-30.312,35.221s48.5,19.713,56.2,19.459,42.315-19.523,44.453-22.914-10.273-25.876-28.431-32.425C122.428,561.962,92.5,563.189,89.166,565.74Z" transform="translate(-25.518 -487.968)" fill="#ffac48"/>
      <path id="Path_283" data-name="Path 283" d="M134.031,565.106c11.444,9.511,15.076,26.272,13.318,29.06-2.14,3.391-30.14,21.077-37.843,21.331-6.143.2-37.795-11.341-50.7-16.781a2.247,2.247,0,0,0,.05,1.02c.626,1.476,48.5,19.715,56.2,19.459s42.315-19.522,44.453-22.912C161.527,593.08,150.557,572.858,134.031,565.106Z" transform="translate(-25.517 -486.745)" fill="#ff8f33"/>
      <path id="Path_284" data-name="Path 284" d="M120.242,565.081c-8.647-3.117-38.577-1.892-41.909.659-1.007.771-1.971,1.525-2.914,2.272,6.739,6.05,17.278,11.713,29.8,15.389,15.262,4.481,29.656,4.9,38.8,1.871C139.027,577.682,130.57,568.8,120.242,565.081Z" transform="translate(-14.684 -487.968)" fill="#ff8f33"/>
      <path id="Path_285" data-name="Path 285" d="M82.758,564.029c8.1,7.858,15.092,11.371,29.577.431C102.18,562.565,90.182,562.507,82.758,564.029Z" transform="translate(-9.908 -488.144)" fill="#e85d42"/>
      <path id="Path_286" data-name="Path 286" d="M109.715,570.326H46.74l-8.11,48.9,66.154,3.287Z" transform="translate(-38.629 -483.348)" fill="#efddca"/>
      <path id="Path_287" data-name="Path 287" d="M128.054,606.761C111.542,601.615,89.8,572.844,89.8,572.844l1.322-1.869s32.129,17.523,38.528,24.273S134.629,608.81,128.054,606.761Z" transform="translate(-5.327 -482.925)" fill="#ffbb83"/>
      <path id="Path_288" data-name="Path 288" d="M129.645,594.557a40.654,40.654,0,0,0-5.61-4.517c.545,3.437-1.545,5.595-5.638,4.319-9.488-2.957-20.7-13.707-28.52-22.323l-.083.117s21.747,28.771,38.259,33.917C134.629,608.119,136.046,601.308,129.645,594.557Z" transform="translate(-5.327 -482.235)" fill="#ff9d66"/>
      <path id="Path_289" data-name="Path 289" d="M92.559,656.843H83.828s5.033-4.109,7.191-4.007S92.559,656.843,92.559,656.843Z" transform="translate(-9.211 -429.645)" fill="#efddca"/>
      <path id="Path_290" data-name="Path 290" d="M95.922,656.843h8.641s-4.981-4.109-7.115-4.007S95.922,656.843,95.922,656.843Z" transform="translate(-1.392 -429.645)" fill="#efddca"/>
      <path id="Path_291" data-name="Path 291" d="M86.235,554.858l13.479-.131v13.691c-5.524,6.992-13.6,4.783-14.183.8Z" transform="translate(-8.102 -493.501)" fill="#ef7a62"/>
      <path id="Path_292" data-name="Path 292" d="M74.712,563.695c-2.387-12.631,2.932-31.781,20.382-34.543s29.255,13.681,31.642,26.311-7.323,24.712-21.691,26.984S77.1,576.324,74.712,563.695Z" transform="translate(-15.496 -510.346)" fill="#ffbb83"/>
      <path id="Path_293" data-name="Path 293" d="M90.111,528.108c24.923,18.1,23.736,38.682,23.736,38.682l8.743-10.638,1.3-13.261-13.068-12.571Z" transform="translate(-5.122 -510.826)" fill="#933b34"/>
      <path id="Path_294" data-name="Path 294" d="M104.571,555.379c-.989-2.031.168-5.388,2.582-7.5s5.174-2.181,6.161-.152-.168,5.388-2.582,7.5S105.559,557.408,104.571,555.379Z" transform="translate(4.06 -499.02)" fill="#ffbb83"/>
      <path id="Path_295" data-name="Path 295" d="M105.245,553.462c-.594-1.225.1-3.254,1.562-4.53s3.125-1.319,3.719-.094-.1,3.254-1.562,4.53S105.841,554.687,105.245,553.462Z" transform="translate(4.59 -497.914)" fill="#f2816b"/>
      <path id="Path_296" data-name="Path 296" d="M104.9,552.5c-.457-.938.073-2.488,1.187-3.462s2.389-1,2.846-.063-.073,2.49-1.185,3.462S105.364,553.438,104.9,552.5Z" transform="translate(4.4 -497.69)" fill="#ffbb83"/>
      <g id="Group_112" data-name="Group 112" transform="translate(66.058 30.593)">
        <path id="Path_297" data-name="Path 297" d="M91.3,545.544a2.932,2.932,0,1,1,2.356,3.822A3.217,3.217,0,0,1,91.3,545.544Z" transform="translate(-70.433 -532.04)" fill="#604748"/>
        <path id="Path_298" data-name="Path 298" d="M79.184,542.682a2.932,2.932,0,1,1,2.357,3.823A3.214,3.214,0,0,1,79.184,542.682Z" transform="translate(-78.32 -533.902)" fill="#604748"/>
        <path id="Path_299" data-name="Path 299" d="M94.919,538.794l6.027,3.458a1.646,1.646,0,0,1,.725,2.074L101,545.752a1.361,1.361,0,0,1-1.958.535l-6.029-3.458a1.645,1.645,0,0,1-.725-2.072l.675-1.428A1.362,1.362,0,0,1,94.919,538.794Z" transform="translate(-69.852 -534.601)" fill="#933b34"/>
        <path id="Path_300" data-name="Path 300" d="M79.328,537.916l4.824-1.694a1.35,1.35,0,0,1,1.575.994l.55,1.5a1.311,1.311,0,0,1-.573,1.748l-4.825,1.694a1.347,1.347,0,0,1-1.573-.994l-.55-1.5A1.309,1.309,0,0,1,79.328,537.916Z" transform="translate(-78.643 -536.171)" fill="#933b34"/>
        <path id="Path_301" data-name="Path 301" d="M87.995,543.994s.079.386.162.979c-2.115,2-5,5.672-.787,6.485-.063.1-.1.216-.172.307C79.677,551.426,86.388,545.14,87.995,543.994Z" transform="translate(-75.351 -531.079)" fill="#ef7a62"/>
        <path id="Path_302" data-name="Path 302" d="M87.452,553.713c-.112-1.53-.979-2.714-1.936-2.643s-1.639,1.367-1.527,2.9.979,2.714,1.936,2.643S87.565,555.244,87.452,553.713Z" transform="translate(-75.172 -526.475)" fill="#492e36"/>
      </g>
      <g id="Group_113" data-name="Group 113" transform="translate(74.518 82.014)">
        <path id="Path_303" data-name="Path 303" d="M94.029,577.509c-2.166-2.607-5.781-5.255-5.973-6.62s4.911-3.6,7.232-.55a40.125,40.125,0,0,1,3.866,6.3Z" transform="translate(-80.981 -566.345)" fill="#ffbb83"/>
        <path id="Path_304" data-name="Path 304" d="M95.9,575.806c-3.125-1.215-8.69.007-9.143-.8s6.3-3.064,7.378-2.466S97.085,576.268,95.9,575.806Z" transform="translate(-81.838 -563.987)" fill="#ffbb83"/>
        <path id="Path_305" data-name="Path 305" d="M94.769,575.112c-4.284-4.626-10.7-4.725-10.99-5.312s4.916-1.179,8.22.832S94.769,575.112,94.769,575.112Z" transform="translate(-83.768 -566.069)" fill="#ffbb83"/>
        <path id="Path_306" data-name="Path 306" d="M95.367,573.8c-4.284-4.626-10.7-4.725-10.988-5.313s4.556-1.124,7.861.887S95.367,573.8,95.367,573.8Z" transform="translate(-83.379 -566.906)" fill="#ffbb83"/>
        <path id="Path_307" data-name="Path 307" d="M96.723,575.3c-3.051-5.474-8.837-7.14-8.989-7.761s4.315.017,6.985,2.762C97.415,573.073,96.723,575.3,96.723,575.3Z" transform="translate(-81.189 -567.319)" fill="#ffbb83"/>
      </g>
      <path id="Path_308" data-name="Path 308" d="M55.713,596.8c-1,.462-1.156,5.393,2,10.325l1.387-3.16C57.871,603.036,56.715,596.334,55.713,596.8Z" transform="translate(-27.926 -466.134)" fill="#ffbb83"/>
      <path id="Path_309" data-name="Path 309" d="M57.86,596.983c-1,.462-1.156,5.393,2,10.325l1.387-3.16C60.018,603.223,58.862,596.521,57.86,596.983Z" transform="translate(-26.529 -466.013)" fill="#ffbb83"/>
      <path id="Path_310" data-name="Path 310" d="M60.867,597.057c-1.076.241-2.268,5.027-.223,10.514l2.022-2.795C61.657,603.613,61.943,596.817,60.867,597.057Z" transform="translate(-25.027 -465.953)" fill="#ffbb83"/>
    </g>
  </g>
</svg>
