<svg xmlns="http://www.w3.org/2000/svg" width="193.385" height="270.568" viewBox="0 0 193.385 270.568">
  <g id="Group_16" data-name="Group 16" transform="translate(-594.989 -478.634)">
    <path id="Path_81" data-name="Path 81" d="M660.842,496.443c0-3.567-2.21-6.458-4.938-6.458s-4.937,2.891-4.937,6.458,2.211,6.458,4.937,6.458S660.842,500.009,660.842,496.443Z" transform="translate(27.014 5.478)" fill="#9b8c80"/>
    <rect id="Rectangle_22" data-name="Rectangle 22" width="123.581" height="11.287" transform="translate(628.598 663.217)" fill="#513a38"/>
    <path id="Path_82" data-name="Path 82" d="M743.064,633.841C740.1,590.683,725.439,555.7,710.321,555.7s-24.971,34.984-22.006,78.142,17.625,78.142,32.743,78.142S746.029,677,743.064,633.841Zm-24.338,71.2c-12.977,0-25.285-33.812-27.379-73.832-2-38.271,6.163-67.979,18.141-67.841,11.954.136,23.947,29.969,26.924,68.11C739.525,671.352,731.676,705.038,718.726,705.038Z" transform="translate(44.783 37.19)" fill="#513a38"/>
    <ellipse id="Ellipse_5" data-name="Ellipse 5" cx="11.669" cy="4.529" rx="11.669" ry="4.529" transform="translate(734.896 749.145) rotate(-89.64)" fill="#7c5553"/>
    <path id="Path_83" data-name="Path 83" d="M712.389,612.866c-.7-9.225-4.175-16.7-7.754-16.7s-5.914,7.477-5.211,16.7,4.173,16.7,7.754,16.7S713.09,622.089,712.389,612.866Z" transform="translate(50.338 56.718)" fill="#513a38"/>
    <path id="Path_84" data-name="Path 84" d="M684.552,505.334H607.338a9.8,9.8,0,0,0-9.583,11.831l20.759,94.842L720.561,637.6,694.136,513.1A9.8,9.8,0,0,0,684.552,505.334Z" transform="translate(1.23 12.885)" fill="#773f3c"/>
    <path id="Path_85" data-name="Path 85" d="M605.973,543.179c7.151-18.561,19.263-32.282,31.714-36.906H609.82a9.462,9.462,0,0,0-9.256,11.426Z" transform="translate(2.589 13.338)" fill="#914947"/>
    <path id="Path_86" data-name="Path 86" d="M650.476,590.337l-39.65-17.655,3.9,20.885a18.973,18.973,0,0,0,15.908,15.29l19.843,2.9Z" transform="translate(7.643 45.385)" fill="#513a38"/>
    <path id="Path_87" data-name="Path 87" d="M705.683,522.447c-7.269-5.871-27.957-15.376-61.225-8.667S592.74,572.767,600.4,578.788l110.319,24.731s44.432-31.646,43.592-38.635S712.951,528.316,705.683,522.447Z" transform="translate(1.779 15.849)" fill="#e03b5a"/>
    <path id="Path_88" data-name="Path 88" d="M634.815,513.78a41.912,41.912,0,0,0-16.157,7.327c6.7,3.431,17.76,5.678,30.3,5.678,17.65,0,32.388-4.448,36.1-10.4C674.338,512.174,657.51,509.2,634.815,513.78Z" transform="translate(11.422 15.849)" fill="#d3264b"/>
    <path id="Path_89" data-name="Path 89" d="M632.674,513.234c7.838,17.8,37.5,28.5,37.5,28.5s4.63-24.744-2.75-29.085S632.674,513.234,632.674,513.234Z" transform="translate(18.186 15.552)" fill="#efddca"/>
    <path id="Path_90" data-name="Path 90" d="M632.676,512.941c2.317,5.256,6.543,9.887,11.339,13.813,11.137-.2,20.962-2.157,27.38-5.13-.338-3.37-1.122-6.354-2.657-8.148C659.422,511.362,647.377,510.548,632.676,512.941Z" transform="translate(18.187 15.851)" fill="#d8bfa9"/>
    <path id="Path_91" data-name="Path 91" d="M640.333,503.99c-1.158-4.116-4.225-6.854-6.849-6.116s-3.816,4.673-2.658,8.789,4.224,6.854,6.849,6.116S641.489,508.105,640.333,503.99Z" transform="translate(17.08 9.227)" fill="#9b8c80"/>
    <path id="Path_92" data-name="Path 92" d="M634.164,519.425l.274-22.095,15.629,3.183,3.761,20.116C647.051,523.275,640.52,522.531,634.164,519.425Z" transform="translate(18.905 9.022)" fill="#ed7656"/>
    <path id="Path_93" data-name="Path 93" d="M719.764,526.191c44.457,35.644,12.114,31.52-8.941,13.72,2.387,12.807-12.723,22.575-25.831,22.575-16.9,0-34.216-12.138-44.2-28.855-.31.448-.611.9-.94,1.342-8.62,11.666-20.375,17.6-26.257,13.256-3.886-2.87-4.215-9.517-1.52-17.056-11.545,16.989-16.236,36.932-11.683,40.514l110.319,24.731s44.432-31.646,43.594-38.635C753.727,552.95,734.176,537.318,719.764,526.191Z" transform="translate(1.779 22.95)" fill="#d3264b"/>
    <path id="Path_94" data-name="Path 94" d="M686.047,561.105c-3.254-11.714,1.693-21.8,7.782-22s20.815,2.9,24.817,11.288-4.6,24.6-10.053,23.732S686.047,561.105,686.047,561.105Z" transform="translate(43.445 29.179)" fill="#efddca"/>
    <path id="Path_95" data-name="Path 95" d="M617.176,570.9c-8.212,4.741-19.008-.224-19.244-8.4s13.443-27.091,23.932-27.652,14,4.7,15.057,9.067S621.247,568.546,617.176,570.9Z" transform="translate(1.419 27.108)" fill="#efddca"/>
    <path id="Path_96" data-name="Path 96" d="M692.146,648.521l-6.729-36.759a3.679,3.679,0,0,0-3.437-2.964h0a2.374,2.374,0,0,0-2.351,2.964l6.729,36.759a3.68,3.68,0,0,0,3.436,2.965h0A2.375,2.375,0,0,0,692.146,648.521Z" transform="translate(40.821 62.814)" fill="#513a38"/>
    <path id="Path_97" data-name="Path 97" d="M669.453,648.521l-6.729-36.759a3.679,3.679,0,0,0-3.437-2.964h0a2.374,2.374,0,0,0-2.351,2.964l6.728,36.759a3.681,3.681,0,0,0,3.437,2.965h0A2.376,2.376,0,0,0,669.453,648.521Z" transform="translate(29.87 62.814)" fill="#513a38"/>
    <rect id="Rectangle_23" data-name="Rectangle 23" width="52.674" height="9.84" rx="1.667" transform="translate(688.797 710.971)" fill="#513a38"/>
    <rect id="Rectangle_24" data-name="Rectangle 24" width="44.57" height="6.668" rx="1.667" transform="translate(696.901 713.018)" fill="#6b4e4d"/>
    <path id="Path_98" data-name="Path 98" d="M679.6,636.024c3.364,4.233-1.411,12.59-1.411,12.59s-4.541-9.37-3.364-12.7S679.6,636.024,679.6,636.024Z" transform="translate(38.432 75.2)" fill="#efddca"/>
    <path id="Path_99" data-name="Path 99" d="M680.143,636.841c-.817,5.345,7.48,10.225,7.48,10.225s-.715-10.388-3.389-12.693S680.143,636.841,680.143,636.841Z" transform="translate(41.067 74.854)" fill="#efddca"/>
    <path id="Path_100" data-name="Path 100" d="M717.655,589.7c-4.878,44.7-31.981,70.962-31.981,70.962l-1.947-.637L675.1,599.31S719.179,575.745,717.655,589.7Z" transform="translate(38.658 51.466)" fill="#ff9d66"/>
    <path id="Path_101" data-name="Path 101" d="M688.544,629.367a10.015,10.015,0,0,0-8.17,3.711l.806,5.672,1.947.638a84.9,84.9,0,0,0,8.113-9.686A11.959,11.959,0,0,0,688.544,629.367Z" transform="translate(41.205 72.74)" fill="#ffbb83"/>
    <path id="Path_102" data-name="Path 102" d="M640.653,595.163c17.257,40.274,52.636,63.342,52.636,63.342l1.987-.584-6.591-58.67S635.15,582.32,640.653,595.163Z" transform="translate(21.845 53.912)" fill="#ff9d66"/>
    <path id="Path_103" data-name="Path 103" d="M678.6,638.682l1.987-.584-.688-6.122a14.2,14.2,0,0,0-1.635-.372,11.64,11.64,0,0,0-7.575,1.164C675.495,636.649,678.6,638.682,678.6,638.682Z" transform="translate(36.532 73.735)" fill="#ffbb83"/>
    <path id="Path_104" data-name="Path 104" d="M639.077,648.264c41.966,19.391,87.982,7.524,102.743,2.314,0,0,17.365-74.09.58-84.51s-44.282,4.342-53.543,2.316-51.2-17.047-67.4-3.155S639.077,648.264,639.077,648.264Z" transform="translate(10.649 38.974)" fill="#ffa840"/>
    <path id="Path_105" data-name="Path 105" d="M662.264,570.816c16.925-.434,21.807,10.709,31.41,10.129s14.81-9.84,20.83-9.984c0,0-11.229-6.946-23.76-5.644S662.264,570.816,662.264,570.816Z" transform="translate(32.466 41.753)" fill="#ff8533"/>
    <path id="Path_106" data-name="Path 106" d="M654.34,624.811c-3.826-21.806,18.105-45.325,50.434-51a80.039,80.039,0,0,1,44.055,5.318c-1.025-6.208-3.025-10.945-6.43-13.06-16.787-10.418-44.282,4.342-53.543,2.316s-51.2-17.047-67.4-3.155,17.625,83.035,17.625,83.035c41.966,19.391,87.982,7.524,102.743,2.314,0,0,.343-1.459.884-4a84.232,84.232,0,0,1-22.9,7.437C687.477,659.692,658.168,646.616,654.34,624.811Z" transform="translate(10.649 38.974)" fill="#ff8533"/>
    <path id="Path_107" data-name="Path 107" d="M627.751,560.86c-13.371-2.187-8.141,9.468,1.376,24.311,0,0,31.835-14.326,55.278-15.846Z" transform="translate(11.917 39.553)" fill="#f9662b"/>
    <path id="Path_108" data-name="Path 108" d="M643.131,580.737l-4.341-39.288,63.419,2.877,11.376,34.03Z" transform="translate(21.138 30.313)" fill="#efddca"/>
    <path id="Path_109" data-name="Path 109" d="M703.141,552.006l-2.261-7.094-60.455-2.878.081.772c12.087,14.721,34.882,26.36,43.923,26.36C692.186,569.167,699.031,562.372,703.141,552.006Z" transform="translate(21.927 30.595)" fill="#f7e8da"/>
    <path id="Path_110" data-name="Path 110" d="M603.222,567.934c32.522,15.8,66.123,5.911,66.123,5.911l5.189-10.685s-33.735-26.123-49.2-26.741c-12.046-.48-20.944,17.755-24.294,25.852A4.427,4.427,0,0,0,603.222,567.934Z" transform="translate(2.758 27.881)" fill="#ffbb83"/>
    <path id="Path_111" data-name="Path 111" d="M645.487,561.223c-14.941-7.125-25.926-16.593-27.818-23.311-8.124,5.038-14.041,17.368-16.633,23.634a4.427,4.427,0,0,0,2.185,5.663c22.1,10.738,44.7,9.612,56.916,7.787C657.026,571.879,654.986,565.752,645.487,561.223Z" transform="translate(2.758 28.606)" fill="#ff9d66"/>
    <path id="Path_112" data-name="Path 112" d="M681.032,577.825c1.659-19.087,7.265-36.987,15.1-36.752,4.175.126,13.185,1.868,17.422,7.067,3.711,4.553,4.016,12.157,4.07,17.107.114,10.6-19.68,14.258-19.68,14.258Z" transform="translate(41.523 30.131)" fill="#ffbb83"/>
    <path id="Path_113" data-name="Path 113" d="M691.945,573.965s20.553-4.036,20.439-14.639c-.019-1.745-.078-3.825-.3-5.981-6.417,7.274-12.219,12.479-16.378,14.169A5.912,5.912,0,0,0,691.945,573.965Z" transform="translate(46.759 36.054)" fill="#ff9d66"/>
    <path id="Path_114" data-name="Path 114" d="M658.783,633.841c-7.8-43.158-27.7-78.142-44.454-78.142s-24.006,34.984-16.2,78.142,27.7,78.142,44.454,78.142S666.584,677,658.783,633.841Zm-19.515,71.2c-14.378,0-31.554-33.812-38.061-73.832-6.222-38.271-.283-67.979,13-67.841,13.259.136,29.668,29.969,36.958,68.11C658.786,671.352,653.615,705.038,639.268,705.038Z" transform="translate(0 37.19)" fill="#513a38"/>
    <path id="Path_115" data-name="Path 115" d="M625.447,612.866c-1.666-9.225-5.92-16.7-9.5-16.7s-5.131,7.477-3.463,16.7,5.921,16.7,9.5,16.7S627.115,622.089,625.447,612.866Z" transform="translate(8.119 56.718)" fill="#513a38"/>
    <path id="Path_116" data-name="Path 116" d="M634.049,497.679c-1.026,26.424,8.185,36.428,15.852,41.115s29.087,0,29.087,0-13.693-33.873-15.69-46.228C650.8,482.766,634.049,497.679,634.049,497.679Z" transform="translate(18.812 5.113)" fill="#9b8c80"/>
    <path id="Path_117" data-name="Path 117" d="M639.547,494.276c2.6,13.023,4.919,19.318,6.946,19.9s19.964-1.644,20.065-2.482c.3-2.511-5.522-19.877-5.522-19.877Z" transform="translate(21.503 6.361)" fill="#ffbb83"/>
    <path id="Path_118" data-name="Path 118" d="M654.732,503.306a74.856,74.856,0,0,1,8.523-4.618c-1.179-3.77-2.219-6.873-2.219-6.873l-21.489,2.461c1.672,8.365,3.226,13.939,4.66,17.021A72.156,72.156,0,0,1,654.732,503.306Z" transform="translate(21.503 6.361)" fill="#ff9d66"/>
    <path id="Path_119" data-name="Path 119" d="M632.566,505.681c-3.515-12.94-4.331-19.331,1.284-21.895s13.92-6.391,17.578-4.759,14.443,14.8,14.443,14.8Z" transform="translate(16.791 0)" fill="#7a463f"/>
    <path id="Path_120" data-name="Path 120" d="M637.425,481.023c-1.257.551-2.469,1.1-3.574,1.61-5.615,2.563-4.8,8.955-1.284,21.893l16.98-6.042C641.233,494.694,636.164,487.462,637.425,481.023Z" transform="translate(16.791 1.153)" fill="#563937"/>
    <path id="Path_121" data-name="Path 121" d="M665.773,657.041c-.485-6.445-2.906-11.669-5.407-11.669s-4.135,5.224-3.65,11.669,2.906,11.668,5.407,11.668S666.259,663.485,665.773,657.041Z" transform="translate(29.747 80.464)" fill="#7c5553"/>
    <path id="Path_122" data-name="Path 122" d="M640.318,504.334c-1.53-3.231-4.245-5.035-6.064-4.031s-2.052,4.437-.522,7.666S637.978,513,639.8,512,641.849,507.564,640.318,504.334Z" transform="translate(18.209 10.323)" fill="#ffbb83"/>
    <path id="Path_123" data-name="Path 123" d="M638.031,504.391c-1.02-1.887-2.658-2.9-3.659-2.265s-.986,2.682.034,4.571,2.66,2.9,3.661,2.265S639.051,506.279,638.031,504.391Z" transform="translate(18.648 11.245)" fill="#ed7656"/>
    <path id="Path_124" data-name="Path 124" d="M638.452,505.842c-.7-1.26-1.918-1.895-2.719-1.417s-.881,1.886-.179,3.146,1.918,1.9,2.719,1.419S639.153,507.1,638.452,505.842Z" transform="translate(19.345 12.369)" fill="#ffbb83"/>
    <path id="Path_125" data-name="Path 125" d="M625.271,507.627c28.076-3.038,57.348-20.294,57.348-20.294C670.119,485.882,638.147,495.61,625.271,507.627Z" transform="translate(14.613 4.129)" fill="#7a463f"/>
    <path id="Path_126" data-name="Path 126" d="M663.729,632.374c24.6-2.749,31.981-24.166,36.031-24.455s.725,22,.725,22C687.409,633.791,676.155,633.6,663.729,632.374Z" transform="translate(33.173 62.389)" fill="#ff8533"/>
    <g id="Group_15" data-name="Group 15" transform="translate(666.287 501.854)">
      <path id="Path_127" data-name="Path 127" d="M649.248,501.778c-.234-1.44-1.145-2.494-2.034-2.354s-1.422,1.42-1.189,2.861,1.143,2.494,2.033,2.354S649.481,503.219,649.248,501.778Z" transform="translate(-641.684 -491.827)" fill="#604748"/>
      <path id="Path_128" data-name="Path 128" d="M649.23,495.772l-5.527,1.984a.92.92,0,0,0-.586,1.118l.532,1.7a.834.834,0,0,0,1.1.513l5.527-1.984a.92.92,0,0,0,.586-1.118l-.532-1.7A.834.834,0,0,0,649.23,495.772Z" transform="translate(-643.079 -493.61)" fill="#9b8c80"/>
      <path id="Path_129" data-name="Path 129" d="M656.074,499.94c-.282-1.431-1.227-2.454-2.113-2.286s-1.374,1.466-1.094,2.9,1.228,2.455,2.113,2.286S656.354,501.371,656.074,499.94Z" transform="translate(-638.394 -492.684)" fill="#604748"/>
      <path id="Path_130" data-name="Path 130" d="M655.906,494.314l-4.6,1.153a.879.879,0,0,0-.557,1.024l.3,1.769a.731.731,0,0,0,.845.675l4.6-1.154a.877.877,0,0,0,.556-1.024l-.3-1.769A.731.731,0,0,0,655.906,494.314Z" transform="translate(-639.386 -494.296)" fill="#9b8c80"/>
      <path id="Path_131" data-name="Path 131" d="M651.636,499.938c2.375,3.886,3.405,6.528,2.19,8.05a4.077,4.077,0,0,1-3.122,1.234l-.009.095s3.394.591,4.75-.9S655.06,504.174,651.636,499.938Z" transform="translate(-639.404 -491.573)" fill="#ed7656"/>
      <path id="Path_132" data-name="Path 132" d="M658.165,508.365a9.157,9.157,0,0,0-9.985,3.874l2.031-.594A9.59,9.59,0,0,1,658.165,508.365Z" transform="translate(-640.618 -487.644)" fill="#604748"/>
      <path id="Path_133" data-name="Path 133" d="M655.072,509.612c-.049-.28-.783-.387-1.638-.237s-1.511.5-1.462.778.781.387,1.638.237S655.121,509.893,655.072,509.612Z" transform="translate(-638.789 -487.052)" fill="#604748"/>
    </g>
    <path id="Path_134" data-name="Path 134" d="M646.733,559.139c-2.976.409-5.6,5.161-3.127,7.413s6.4,5.382,9.3,4.5c2.756-.833,5.472-3.892,4.949-6.473C657.351,562.077,647.863,558.983,646.733,559.139Z" transform="translate(22.988 38.847)" fill="#ff9d66"/>
    <path id="Path_135" data-name="Path 135" d="M648.929,558.219c-2.749.366-5.029,4.857-2.678,7.016s6.085,5.164,8.758,4.366c2.541-.759,4.99-3.638,4.434-6.1C658.9,561.108,649.974,558.079,648.929,558.219Z" transform="translate(24.266 38.403)" fill="#ffbb83"/>
    <path id="Path_136" data-name="Path 136" d="M650.75,557.007c-2.036,1.153-2.531,6.053-.119,7.361,2.368,1.285,5.982,2.927,7.778,1.429,1.7-1.423,2.817-4.756,1.784-6.87C659.177,556.847,651.522,556.569,650.75,557.007Z" transform="translate(26.072 37.735)" fill="#ffbb83"/>
    <path id="Path_137" data-name="Path 137" d="M648.138,551.633c6.7,2.976,12.457,4.918,14.482,8.463,1.45,2.537-1.3,8.981-4.491,9.571s-14.4-1.708-15.908-1.557S644.536,550.032,648.138,551.633Z" transform="translate(22.631 35.18)" fill="#ffbb83"/>
    <path id="Path_138" data-name="Path 138" d="M684.08,559.645c-2.9,2.448-5.927,3.708-6.359,5.69s-1.715,8.566,1.085,10.039,4.273-.13,4.273-.13a2.826,2.826,0,0,0,2.348,2.651,4.8,4.8,0,0,0,4.317-1.067s.215,2.761,3.689,2.672c2.209-.056,6.265-3.582,5.84-5.314-.443-1.8,2.027-3.133,3.072-4.323,2.869-3.269-2.839-7.883-7.782-8.8S684.08,559.645,684.08,559.645Z" transform="translate(39.601 39.094)" fill="#ffbb83"/>
    <path id="Path_139" data-name="Path 139" d="M690.3,576.02c-1.231-5.5-.6-8.953,1.788-10.979s3.558-.086,3.69,3.726S690.3,576.02,690.3,576.02Z" transform="translate(45.697 41.305)" fill="#ff9d66"/>
    <path id="Path_140" data-name="Path 140" d="M691.6,565.6c5.263-3.271,7.994-4.059,9.379-2.873s-2.46,4.617-5.968,6.277S691.6,565.6,691.6,565.6Z" transform="translate(46.621 40.328)" fill="#ff9d66"/>
  </g>
</svg>
