<svg xmlns="http://www.w3.org/2000/svg" width="40" height="40" viewBox="0 0 40 40">
  <g id="Group_127" data-name="Group 127" transform="translate(-898 -323)">
    <circle id="Ellipse_7" data-name="Ellipse 7" cx="20" cy="20" r="20" transform="translate(898 323)" fill="#48b6ff"/>
    <g id="Icon_ionic-ios-camera" data-name="Icon ionic-ios-camera" transform="translate(902.833 327.125)">
      <path id="Path_306" data-name="Path 306" d="M20.446,18.537A3.244,3.244,0,1,1,17.2,15.293,3.244,3.244,0,0,1,20.446,18.537Z" transform="translate(-1.868 -1.465)" fill="#fff"/>
      <path id="Path_307" data-name="Path 307" d="M24.446,10.583H21.371a.916.916,0,0,1-.677-.3c-1.6-1.794-2.206-2.4-2.861-2.4H13.009c-.66,0-1.309.609-2.917,2.409a.9.9,0,0,1-.671.3H9.189v-.451a.453.453,0,0,0-.451-.451H7.27a.453.453,0,0,0-.451.451v.451H6.4a1.83,1.83,0,0,0-1.9,1.732v9.931a1.953,1.953,0,0,0,1.89,1.879H24.446a1.809,1.809,0,0,0,1.721-1.879V12.316A1.682,1.682,0,0,0,24.446,10.583ZM15.559,21.891A4.824,4.824,0,1,1,20.152,17.3,4.828,4.828,0,0,1,15.559,21.891Zm5.191-8.035a.734.734,0,1,1,.734-.734A.732.732,0,0,1,20.75,13.856Z" transform="translate(0)" fill="#fff"/>
    </g>
  </g>
</svg>
